<?xml version="1.0" standalone="no"?><!DOCTYPE svg PUBLIC "-//W3C//DTD SVG 1.1//EN" "http://www.w3.org/Graphics/SVG/1.1/DTD/svg11.dtd"><svg t="1642259714491" class="icon" viewBox="0 0 1072 1024" version="1.1" xmlns="http://www.w3.org/2000/svg" p-id="5986" xmlns:xlink="http://www.w3.org/1999/xlink" width="209.375" height="200"><defs><style type="text/css"></style></defs><path d="M866.133333 82.133333c93.333333 0 134.4 81.6 134.4 142.4v434.666667c43.2 33.066667 66.666667 86.933333 67.733334 147.733333 0 101.333333-80.533333 212.8-203.733334 212.8-123.733333 0-200.533333-110.933333-200.533333-212.8 0-60.8 23.466667-114.666667 66.666667-147.733333V224.533333c0-61.333333 34.666667-142.4 135.466666-142.4zM554.666667 517.866667c46.4 0 73.066667 13.866667 102.4 40-42.133333 56-67.733333 131.2-67.733334 213.866666 0 93.157333 32.72 176.965333 83.813334 233.488l2.053333 2.245334H27.733333c-15.557333-4.666667-27.077333-17.904-27.706666-34.810667L0 971.2v-223.466667c0-61.333333 29.866667-119.466667 73.066667-162.666666 43.2-43.2 100.266667-67.2 161.066666-67.2 11.2 0 20.944 4.858667 28.298667 12.725333l1.034667 1.141333 131.733333 160 130.133333-160c7.466667-8.533333 18.133333-13.866667 29.333334-13.866666z m310.933333-369.6c-39.466667 0-67.733333 33.6-67.733333 74.133333v457.6c-43.2 25.6-76.266667 72-76.266667 127.466667 0 81.066667 65.066667 147.733333 144.533333 147.733333l2.378667-0.021333c77.578667-1.301333 140.336-66.133333 141.082667-145.802667l0.005333-2.442667c0-53.333333-34.133333-101.333333-77.333333-127.466666V222.4c0-41.066667-27.2-74.133333-66.666667-74.133333zM222.192 582.298667l-1.306667 0.096c-38.570667 3.109333-74.394667 19.754667-102.56 47.925333-33.728 33.728-53.525333 75.413333-54.304 114.992L64 747.733333v195.733334h495.589333c-21.76-51.242667-33.749333-108.597333-34.24-167.946667l-0.016-3.786667c0-66.042667 14.138667-129.616 40.405334-185.429333l1.866666-3.914667-0.917333-0.08-171.184 210.48-173.312-210.490666zM865.6 230.4c20.266667 0 36.266667 16.533333 36.266667 36.8v434.666667c41.6 16.533333 72.533333 57.066667 72 105.6 0 60.8-48.533333 110.933333-108.266667 110.933333-59.733333 0-108.266667-50.133333-108.266667-110.933333 0-50.133333 30.4-90.666667 72-105.6V267.2c0-20.266667 16.533333-36.8 36.266667-36.8zM394.666667 5.333333c65.066667 0 125.866667 25.6 172.266666 73.066667 45.866667 46.4 71.466667 108.266667 71.466667 173.866667s-25.6 127.466667-71.466667 173.866666C521.066667 472.533333 459.733333 498.133333 394.666667 498.133333c-64.016 0-124.421333-24.778667-170.037334-70.789333L222.4 425.066667C176.533333 378.666667 150.933333 316.8 150.933333 251.2s25.6-127.466667 71.466667-173.866667C268.266667 30.933333 329.6 5.333333 394.666667 5.333333z m0 64c-47.989333 0-92.928 18.773333-126.752 52.992C233.770667 156.869333 214.933333 202.618667 214.933333 251.2c0 47.648 18.122667 92.570667 51.029334 126.869333l2.458666 2.522667C301.957333 415.296 346.56 434.133333 394.666667 434.133333c47.989333 0 92.928-18.773333 126.752-52.992 34.144-34.544 52.981333-80.293333 52.981333-128.874666 0-48.586667-18.837333-94.330667-53.232-129.130667C486.890667 88.074667 442.624 69.333333 394.666667 69.333333z" p-id="5987"></path></svg>