<?xml version="1.0" standalone="no"?><!DOCTYPE svg PUBLIC "-//W3C//DTD SVG 1.1//EN" "http://www.w3.org/Graphics/SVG/1.1/DTD/svg11.dtd"><svg t="1642259654812" class="icon" viewBox="0 0 1024 1024" version="1.1" xmlns="http://www.w3.org/2000/svg" p-id="5014" xmlns:xlink="http://www.w3.org/1999/xlink" width="200" height="200"><defs><style type="text/css"></style></defs><path d="M845.706492 448.914885C793.012459 246.129311 666.791869 27.530492 519.470164 27.530492c-194.694295 0-352.52459 381.817705-352.52459 604.327869 0 222.510164 157.830295 369.311475 352.52459 369.311475s352.52459-146.801311 352.52459-369.311475c0-26.674361-2.26623-55.648525-6.597246-85.982427l-5.153574-31.52577a924.839869 924.839869 0 0 0-6.748327-33.204459l-7.789115-32.23082z" fill="#3EBBDD" p-id="5015"></path><path d="M519.470164 1017.956721c-213.999213 0-369.311475-162.379541-369.311475-386.09836 0-212.622689 155.950164-621.114754 369.311475-621.114754 157.813508 0 288.163672 224.944262 342.469246 433.95777l-32.49941 8.443803C776.628459 249.990295 653.211279 44.317377 519.453377 44.317377c-178.813902 0-335.737705 366.189115-335.737705 587.540984 0 204.26282 141.194492 352.52459 335.737705 352.52459s335.737705-148.26177 335.737705-352.52459c0-25.650361-2.165508-53.78518-6.446164-83.598689l33.238033-4.750688c4.498885 31.391475 6.765115 61.121049 6.765115 88.366164 0.033574 223.702033-155.278689 386.081574-369.277902 386.081573z" fill="#000000" p-id="5016"></path><path d="M843.725639 517.371803a842.097311 842.097311 0 0 0-6.630819-32.54977l32.751213-7.319082c2.53482 11.381508 4.85141 22.679082 6.882623 33.84236l-33.003017 6.026492zM351.601311 766.153443a16.770098 16.770098 0 0 1-11.868327-28.655213l335.737705-335.737705a16.770098 16.770098 0 1 1 23.736655 23.736655l-335.737705 335.737705a16.736525 16.736525 0 0 1-11.868328 4.918558z" fill="#000000" p-id="5017"></path><path d="M620.191475 682.219016m-50.360655 0a50.360656 50.360656 0 1 0 100.721311 0 50.360656 50.360656 0 1 0-100.721311 0Z" fill="#FFFFFF" p-id="5018"></path><path d="M620.191475 749.366557c-37.031869 0-67.147541-30.115672-67.147541-67.147541s30.115672-67.147541 67.147541-67.147541 67.147541 30.115672 67.147541 67.147541-30.115672 67.147541-67.147541 67.147541z m0-100.721311c-18.515934 0-33.57377 15.057836-33.57377 33.57377s15.057836 33.57377 33.57377 33.573771 33.57377-15.057836 33.573771-33.573771-15.057836-33.57377-33.573771-33.57377z" fill="#000000" p-id="5019"></path><path d="M418.748852 480.776393m-50.360655 0a50.360656 50.360656 0 1 0 100.721311 0 50.360656 50.360656 0 1 0-100.721311 0Z" fill="#FFFFFF" p-id="5020"></path><path d="M418.748852 547.923934c-37.031869 0-67.147541-30.115672-67.147541-67.147541s30.115672-67.147541 67.147541-67.147541 67.147541 30.115672 67.147541 67.147541-30.115672 67.147541-67.147541 67.147541z m0-100.721311c-18.515934 0-33.57377 15.057836-33.57377 33.57377s15.057836 33.57377 33.57377 33.573771 33.57377-15.057836 33.573771-33.573771-15.057836-33.57377-33.573771-33.57377z" fill="#000000" p-id="5021"></path></svg>