<?xml version="1.0" standalone="no"?><!DOCTYPE svg PUBLIC "-//W3C//DTD SVG 1.1//EN" "http://www.w3.org/Graphics/SVG/1.1/DTD/svg11.dtd"><svg t="1642259772240" class="icon" viewBox="0 0 1024 1024" version="1.1" xmlns="http://www.w3.org/2000/svg" p-id="8401" xmlns:xlink="http://www.w3.org/1999/xlink" width="200" height="200"><defs><style type="text/css"></style></defs><path d="M914.152727 503.202909c4.654545-25.553455 7.168-51.898182 7.168-78.941091C921.320727 189.952 738.024727 0 511.860364 0c-226.210909 0-409.506909 189.952-409.506909 424.261818 0 27.042909 2.513455 53.387636 7.214545 78.941091H914.152727z m-16.663272 91.136H126.231273a33.698909 33.698909 0 0 0-33.140364 34.257455c0 18.897455 14.801455 34.257455 33.093818 34.257454h771.444364c18.338909 0 33.093818-15.36 33.093818-34.257454a33.838545 33.838545 0 0 0-33.233454-34.257455z m-66.56 157.090909H192.884364a33.698909 33.698909 0 0 0-33.093819 34.257455c0 18.897455 14.754909 34.257455 33.093819 34.257454h638.045091c18.338909 0 33.140364-15.36 33.140363-34.257454-0.139636-18.897455-14.894545-34.257455-33.140363-34.257455z m-185.716364 157.230546h-266.705455a33.698909 33.698909 0 0 0-33.140363 34.257454c0 18.897455 14.801455 34.257455 33.140363 34.257455h266.612364c18.292364 0 33.093818-15.36 33.093818-34.257455a33.605818 33.605818 0 0 0-33.000727-34.257454z" p-id="8402"></path></svg>