<?xml version="1.0" standalone="no"?><!DOCTYPE svg PUBLIC "-//W3C//DTD SVG 1.1//EN" "http://www.w3.org/Graphics/SVG/1.1/DTD/svg11.dtd"><svg t="1642259736204" class="icon" viewBox="0 0 1170 1024" version="1.1" xmlns="http://www.w3.org/2000/svg" p-id="6801" xmlns:xlink="http://www.w3.org/1999/xlink" width="228.515625" height="200"><defs><style type="text/css"></style></defs><path d="M1117.729406 165.372614c0-29.179144-10.530819-43.73215-31.446195-43.73215a31.446195 31.446195 0 0 0-25.010694 11.70091 44.244065 44.244065 0 0 0-9.945774 29.691058v102.894876h-52.654094V85.587036h52.654094v28.74036h0.658177a63.550566 63.550566 0 0 1 58.065764-33.128201c40.002485 0 59.967163 24.791303 59.967163 74.373907v110.427336h-52.288441V165.299484zM910.403911 47.120295a25.815132 25.815132 0 0 1-8.629421-19.745285c0-8.044375 2.925227-14.626137 8.556291-19.599024a31.884979 31.884979 0 0 1 21.939205-7.605592c9.141336 0 16.527535 2.559574 22.231729 7.751853 5.631063 5.119148 8.410029 11.70091 8.410029 19.452763 0 7.971245-2.852097 14.626137-8.629421 19.818416a31.299934 31.299934 0 0 1-21.939206 7.898114 30.93428 30.93428 0 0 1-21.939206-7.971245z m-124.834081 74.5933a28.009053 28.009053 0 0 0-23.401819 12.432216 50.021389 50.021389 0 0 0-9.214467 30.714889v101.066608h-52.507832V161.789211c0-26.6927-9.945773-40.075616-29.83732-40.075616a28.009053 28.009053 0 0 0-23.767473 11.993432 51.995918 51.995918 0 0 0-8.848813 31.738718v100.554693h-52.654094V85.587036h52.654094v28.228445h0.658176a67.645885 67.645885 0 0 1 58.065765-32.616286c25.303217 0 42.63519 11.335256 51.922787 34.078899a66.914578 66.914578 0 0 1 60.698469-34.078899c39.271178 0 58.870202 24.279388 58.870202 72.765032v111.963081h-52.507832V163.032432c0-27.570269-10.092035-41.391968-30.129843-41.391968zM298.080677 1016.979454C133.463502 1017.052585 0 882.27273 0 715.97355S182.168539 239.161477 298.080677 38.417743C405.729047 239.161477 596.015092 549.601239 596.015092 715.97355c0 166.29918-133.390371 301.079035-298.007546 301.079035zM54.628623 704.930817c0 135.803684 108.964722 245.865367 243.452054 245.865366 134.414201 0 243.378923-110.061683 243.378923-245.865366 0-135.803684-155.475839-389.347773-243.378923-553.306772C203.303307 315.583044 54.628623 569.127132 54.628623 704.930817z m851.094924-619.343781h52.507833v180.340272h-52.507833V85.587036z m46.364855 772.991352c0 72.545641-58.212026 131.342712-129.953229 131.342712-71.741203 0-129.953229-58.797072-129.953229-131.269581 0-72.47251 79.346794-207.83741 129.953229-295.374841 46.87677 87.537431 129.953229 222.902331 129.953229 295.374841z m-40.5144-3.949057v-8.48316c0-49.948259-57.188197-134.560462-89.438829-194.820147-34.810207 60.186555-89.438829 153.355049-89.438829 203.303307a89.950744 89.950744 0 0 0 89.438829 90.389528 89.950744 89.950744 0 0 0 89.438829-90.389528z" p-id="6802"></path></svg>